<?xml version="1.0" encoding="UTF-8"?>
<svg xmlns="http://www.w3.org/2000/svg" xmlns:xlink="http://www.w3.org/1999/xlink" width="365pt" height="54.66pt" viewBox="0 0 365 54.66" version="1.1">
<defs>
<clipPath id="clip1">
  <path d="M 0 0 L 96 0 L 96 54.660156 L 0 54.660156 Z M 0 0 "/>
</clipPath>
</defs>
<g id="surface1">
<g clip-path="url(#clip1)" clip-rule="nonzero">
<path style=" stroke:none;fill-rule:nonzero;fill:rgb(2.398682%,32.499695%,58.399963%);fill-opacity:1;" d="M 94.621094 10.847656 C 91.316406 -0.152344 69.445313 -3.308594 45.765625 3.8125 C 44.648438 4.136719 43.550781 4.496094 42.464844 4.875 C 63.640625 -0.0351563 82.035156 3.195313 84.945313 12.90625 C 88.152344 23.546875 71.546875 37.9375 47.867188 45.046875 C 47.320313 45.207031 46.792969 45.359375 46.253906 45.511719 L 57.285156 7.390625 L 57.234375 7.398438 L 57.261719 7.390625 L 54.371094 7.589844 C 48.960938 8.125 43.203125 9.253906 37.3125 11.023438 C 13.632813 18.136719 -2.890625 32.8125 0.421875 43.824219 C 3.722656 54.820313 25.601563 57.96875 49.285156 50.851563 C 50.402344 50.515625 51.503906 50.160156 52.589844 49.800781 C 31.40625 54.703125 13.007813 51.472656 10.09375 41.769531 C 6.894531 31.117188 23.496094 16.726563 47.1875 9.617188 C 47.683594 9.464844 48.183594 9.324219 48.675781 9.179688 L 37.792969 47.265625 L 40.683594 47.078125 C 46.097656 46.539063 51.847656 45.402344 57.734375 43.640625 C 81.414063 36.527344 97.929688 21.839844 94.621094 10.847656 "/>
</g>
<path style=" stroke:none;fill-rule:nonzero;fill:rgb(28.999329%,29.399109%,30.198669%);fill-opacity:1;" d="M 242.3125 25.859375 L 242.453125 25.859375 C 242.589844 27.015625 242.683594 28.546875 242.824219 29.589844 L 243.429688 33.644531 L 236.765625 33.644531 L 239.796875 29.589844 C 240.621094 28.488281 241.53125 27.015625 242.3125 25.859375 Z M 163.117188 25.859375 L 163.253906 25.859375 C 163.394531 27.015625 163.535156 28.546875 163.675781 29.589844 L 164.234375 33.644531 L 157.570313 33.644531 L 160.644531 29.589844 C 161.472656 28.488281 162.335938 27.015625 163.117188 25.859375 Z M 122.050781 25.816406 C 127.421875 25.816406 130.066406 27.460938 130.066406 30.476563 C 130.066406 32.871094 128.964844 34.882813 126.851563 36.347656 C 124.832031 37.785156 121.671875 38.539063 118.085938 38.539063 C 116.9375 38.539063 115.976563 38.484375 115.195313 38.398438 L 119.113281 25.953125 C 119.800781 25.867188 120.761719 25.816406 122.050781 25.816406 Z M 353.347656 25.769531 C 356.011719 25.769531 358.101563 26.4375 358.101563 27.957031 C 358.101563 29.820313 355.484375 31.128906 351.902344 31.128906 L 349.199219 31.128906 L 350.78125 25.90625 C 351.335938 25.824219 352.105469 25.769531 353.347656 25.769531 Z M 311.347656 22.691406 L 305.472656 41.710938 L 324.445313 41.710938 L 325.519531 38.214844 L 313.164063 38.214844 L 314.609375 33.597656 L 325.566406 33.597656 L 326.683594 30.195313 L 315.589844 30.195313 L 316.894531 26.140625 L 328.546875 26.140625 L 329.667969 22.691406 Z M 270.652344 22.691406 L 264.734375 41.710938 L 271.351563 41.710938 L 273.824219 33.691406 L 285.058594 33.691406 L 282.632813 41.710938 L 289.253906 41.710938 L 295.125 22.691406 L 288.460938 22.691406 L 286.175781 30.054688 L 274.941406 30.054688 L 277.273438 22.691406 Z M 239.234375 22.691406 L 224.085938 41.664063 L 231.171875 41.664063 L 234.808594 36.769531 L 243.710938 36.769531 L 244.363281 41.664063 L 251.308594 41.664063 L 247.71875 22.691406 Z M 191.457031 22.691406 L 185.585938 41.710938 L 191.738281 41.710938 L 193.789063 35.042969 C 194.707031 32.027344 195.425781 29.351563 195.746094 27.492188 L 195.886719 27.492188 C 196.714844 29.804688 197.535156 31.519531 198.914063 34.113281 L 203.25 41.710938 L 210.101563 41.710938 L 215.976563 22.691406 L 209.777344 22.691406 L 207.679688 29.589844 C 206.851563 32.378906 206.371094 34.496094 206.234375 36.441406 L 206.09375 36.441406 C 205.359375 34.355469 204.535156 32.339844 203.296875 29.917969 L 199.195313 22.691406 Z M 160.039063 22.691406 L 144.890625 41.664063 L 151.976563 41.664063 L 155.609375 36.769531 L 164.515625 36.769531 L 165.167969 41.664063 L 172.113281 41.664063 L 168.523438 22.691406 Z M 353.394531 22.597656 C 350.316406 22.597656 347.210938 22.753906 345.144531 23.0625 L 339.363281 41.710938 L 345.886719 41.710938 L 348.171875 34.203125 L 350.175781 34.203125 C 352.796875 34.203125 354.097656 34.878906 354.417969 37.1875 C 354.695313 39.527344 355.027344 41.203125 355.304688 41.710938 L 362.109375 41.710938 C 361.558594 40.921875 361.308594 38.398438 360.898438 36.257813 C 360.621094 34.535156 359.796875 33.3125 357.960938 32.808594 L 357.960938 32.714844 C 361.957031 31.921875 365 30.171875 365 27.351563 C 365 25.578125 363.570313 24.402344 361.550781 23.671875 C 359.390625 22.824219 356.332031 22.597656 353.394531 22.597656 Z M 121.675781 22.597656 C 118.78125 22.597656 115.996094 22.734375 113.332031 23.019531 L 107.550781 41.476563 C 109.113281 41.648438 112.363281 41.851563 116.082031 41.851563 C 122.789063 41.851563 127.324219 41.0625 130.90625 39.285156 C 134.71875 37.398438 137.246094 34.054688 137.246094 30.335938 C 137.246094 27.660156 135.714844 25.777344 133.097656 24.507813 C 130.570313 23.1875 126.683594 22.597656 121.675781 22.597656 "/>
</g>
</svg>
